<svg width="419" height="419" xmlns="http://www.w3.org/2000/svg" xmlns:xlink="http://www.w3.org/1999/xlink" xml:space="preserve" overflow="hidden"><defs><clipPath id="clip0"><rect x="198" y="22" width="419" height="419"/></clipPath></defs><g clip-path="url(#clip0)" transform="translate(-198 -22)"><path d="M382.687 129.997C382.687 135.011 378.89 137.518 371.298 137.518L137.518 137.518C131.788 137.518 125.664 135.978 119.146 132.898 112.629 129.818 107.507 126.058 103.783 121.617L40.6108 43.619C38.0323 40.181 36.7431 37.3161 36.7431 35.0241 36.7431 30.0105 40.5392 27.5036 48.1313 27.5036L281.912 27.5036C287.642 27.5036 293.801 29.0792 300.391 32.2308 306.981 35.3823 312.065 39.1782 315.647 43.619L378.819 121.617C381.397 124.769 382.687 127.562 382.687 129.997ZM137.518 165.022 302.539 165.022 302.539 199.401C302.539 205.131 300.535 210.001 296.523 214.012 292.511 218.024 287.642 220.029 281.912 220.029L158.146 220.029C152.416 220.029 147.545 222.033 143.534 226.045 139.523 230.057 137.518 234.926 137.518 240.656L137.518 254.408C137.518 260.139 135.513 265.008 131.502 269.02 127.491 273.031 122.62 275.036 116.89 275.036L48.1313 275.036C42.4013 275.036 37.531 273.031 33.52 269.02 29.509 265.008 27.5036 260.139 27.5036 254.408L27.5036 71.1226 82.5108 138.807C88.8136 146.399 97.122 152.666 107.436 157.608 117.75 162.551 127.777 165.022 137.518 165.022ZM410.19 129.997C410.19 121.116 406.896 112.521 400.306 104.213L336.919 26.2144C330.759 18.6222 322.452 12.3551 311.994 7.41308 301.536 2.47103 291.51 0 281.912 0L48.1313 0C34.9526 0 23.6359 4.72718 14.1815 14.1815 4.72718 23.6359 0 34.9526 0 48.1313L0 254.408C0 267.586 4.72718 278.904 14.1815 288.358 23.6359 297.812 34.9526 302.539 48.1313 302.539L116.89 302.539C130.069 302.539 141.386 297.812 150.84 288.358 160.294 278.904 165.022 267.586 165.022 254.408L165.022 247.532 281.912 247.532C295.09 247.532 306.407 242.805 315.862 233.351 325.316 223.896 330.043 212.58 330.043 199.401L330.043 165.022 371.298 165.022C379.034 165.022 386.125 163.267 392.571 159.757 399.017 156.248 403.815 151.198 406.967 144.609 409.116 140.025 410.19 135.154 410.19 129.997Z" fill="#FFFFFF" transform="matrix(1 0 0 -1 204.526 387.157)"/></g></svg>