<svg width="410" height="419" xmlns="http://www.w3.org/2000/svg" xmlns:xlink="http://www.w3.org/1999/xlink" xml:space="preserve" overflow="hidden"><defs><clipPath id="clip0"><rect x="617" y="-15" width="410" height="419"/></clipPath></defs><g clip-path="url(#clip0)" transform="translate(-617 15)"><path d="M201.696 400.66C199.403 399.928 193.989 394.611 101.799 302.519 48.1923 248.961 3.80466 204.232 3.12177 203.11-0.292666 197.354 2.14622 189.94 8.48731 187.014 11.414 185.648 13.5602 185.55 16.8771 186.623 19.0721 187.355 26.3887 194.574 111.945 280.032 162.917 331.005 204.866 372.661 205.159 372.661 205.695 372.661 210.524 367.783 288.032 289.495 380.71 195.842 390.172 186.428 392.465 185.55 393.928 185.014 395.587 184.819 397.928 184.965 404.708 185.306 408.513 189.452 408.513 196.33 408.464 198.72 408.22 200.281 407.586 201.452 407.049 202.378 385.49 224.426 359.638 250.376L312.665 297.641 312.665 330.664 312.665 363.686 311.445 366.174C308.031 373.003 299.202 374.71 293.398 369.637 289.495 366.223 289.495 366.125 289.544 342.322 289.593 330.81 289.447 321.445 289.251 321.445 289.056 321.445 271.35 339.102 249.937 360.662 212.085 398.757 210.866 399.879 208.329 400.66 205.159 401.586 204.866 401.586 201.696 400.66Z" fill="#FFFFFF" transform="matrix(1.00036 0 0 -1 617.06 404)"/><path d="M337.932 212.963C333.883 211.5 331.151 208.427 330.273 204.33 329.883 202.671 329.737 176.917 329.737 121.7L329.737 41.461 288.276 41.461 246.815 41.461 246.815 74.142C246.815 95.5066 246.62 107.603 246.278 109.213 245.595 112.384 243.547 115.213 240.62 116.92L238.279 118.286 205.11 118.286C172.039 118.286 171.941 118.286 169.99 117.213 167.698 115.993 165.356 113.603 164.088 111.213 163.21 109.603 163.161 107.555 163.015 75.5078L162.869 41.461 121.456 41.461 79.9953 41.461 79.9953 120.237C79.9953 185.258 79.8978 199.305 79.3612 200.622 78.2881 203.159 76.0443 205.403 73.4104 206.622 67.2156 209.549 60.0453 206.573 57.7527 200.135 56.8747 197.598 56.7284 29.2178 57.6552 26.2912 58.3868 23.8035 61.0208 20.7305 63.6061 19.3647L65.6059 18.2916 120.237 18.1453C159.064 18.0477 175.6 18.1453 177.404 18.5355 180.916 19.3159 183.697 21.4622 185.16 24.5352L186.331 27.0716 186.331 61.1184 186.331 95.1164 204.866 95.1164 223.353 95.1164 223.499 61.0696C223.646 27.8033 223.646 27.0228 224.67 24.8766 225.938 22.0963 228.523 19.8525 231.547 18.8282 233.694 18.0965 239.254 18.0477 289.3 18.1453L344.614 18.2916 346.565 19.3647C349.053 20.6817 350.906 22.6328 352.028 25.1205 352.858 26.974 352.906 31.4616 353.053 114.384 353.15 176.039 353.004 202.427 352.614 204.281 351.248 210.963 344.126 215.158 337.932 212.963Z" fill="#FFFFFF" transform="matrix(1.00036 0 0 -1 617.06 404)"/></g></svg>