<svg width="603" height="490" xmlns="http://www.w3.org/2000/svg" xmlns:xlink="http://www.w3.org/1999/xlink" xml:space="preserve" overflow="hidden"><defs><clipPath id="clip0"><rect x="339" y="31" width="603" height="490"/></clipPath></defs><g clip-path="url(#clip0)" transform="translate(-339 -31)"><path d="M133.91 138.039 359.476 322.635 585.043 138.039ZM106.412 160.325 106.412 414.116 255.78 282.547ZM612.555 160.325 463.187 282.547 612.555 414.116ZM283.1 304.835 132.479 437.122 586.498 437.122 435.877 304.835 370.454 358.395 370.445 358.399C367.356 360.943 363.481 362.331 359.48 362.331 355.48 362.331 351.605 360.942 348.515 358.399L283.092 304.839Z" fill="#E7E6E6" transform="matrix(1 0 0 1.0008 280.506 0.045815)"/><path d="M19.2741-1.15546C18.2792-0.641922 17.24-0.256769 16.1608 0 15.0896 0.26479 13.9663 0.401196 12.7908 0.401196 9.30037 0.401196 6.5361-0.569708 4.49397-2.5196 2.44783-4.47741 1.42876-7.12542 1.42876-10.4634 1.42876-13.8094 2.44782-16.4573 4.49397-18.4072 6.5361-20.3651 9.30037-21.3441 12.7908-21.3441 13.9663-21.3441 15.0897-21.2077 16.1608-20.9429 17.2401-20.6861 18.2792-20.301 19.2741-19.7874L19.2741-15.4544C18.267-16.1284 17.2761-16.6259 16.3052-16.9468 15.3303-17.2678 14.3033-17.4282 13.224-17.4282 11.2982-17.4282 9.78166-16.8063 8.68238-15.5667 7.5791-14.335 7.02941-12.6338 7.02941-10.4633 7.02941-8.30083 7.57906-6.59979 8.68238-5.36001 9.78166-4.12834 11.2982-3.51446 13.224-3.51446 14.3033-3.51446 15.3303-3.66692 16.3052-3.97984 17.2761-4.30081 18.2672-4.80231 19.2741-5.48841Z" fill="#E7E6E6" transform="matrix(1 0 0 1.0008 352.401 662.013)"/><path d="M14.1059-11.4426C13.6565-11.6432 13.2112-11.7957 12.7738-11.892 12.3445-11.9963 11.9113-12.0524 11.474-12.0524 10.1781-12.0524 9.18308-11.6352 8.48909-10.8007 7.79099-9.9742 7.44599-8.79469 7.44599-7.25408L7.44599-0.000359476 2.42297-0.000359476 2.42297-15.727 7.44599-15.727 7.44599-13.1433C8.08791-14.1704 8.82617-14.9165 9.66057-15.39 10.5031-15.8714 11.5101-16.1121 12.6776-16.1121 12.8461-16.1121 13.0307-16.1001 13.2233-16.08 13.4239-16.068 13.7127-16.0399 14.0898-15.9998Z" fill="#E7E6E6" transform="matrix(1 0 0 1.0008 373.508 662.013)"/><path d="M18.1186-7.91166 18.1186-6.46739 6.35554-6.46739C6.48393-5.2879 6.9092-4.40523 7.63939-3.81949 8.36556-3.22972 9.3886-2.93684 10.7046-2.93684 11.7637-2.93684 12.843-3.0893 13.9462-3.40223 15.0575-3.72319 16.197-4.19661 17.3645-4.83048L17.3645-0.962924C16.1769-0.513579 14.9893-0.176575 13.8017 0.0481082 12.6142 0.280802 11.4266 0.401165 10.239 0.401165 7.39053 0.401165 5.17584-0.320992 3.59507-1.76535 2.02241-3.20962 1.23598-5.23573 1.23598-7.84758 1.23598-10.4153 2.0103-12.4293 3.56292-13.8977 5.11155-15.3741 7.24191-16.1122 9.9501-16.1122 12.4214-16.1122 14.3994-15.362 15.8878-13.8655 17.3723-12.3771 18.1185-10.3911 18.1185-7.91167ZM12.9512-9.58066C12.9512-10.5315 12.6704-11.2978 12.1167-11.8756 11.559-12.4613 10.8329-12.7582 9.93418-12.7582 8.95926-12.7582 8.16884-12.4854 7.55907-11.9398 6.94929-11.3941 6.56811-10.6077 6.41963-9.58066Z" fill="#E7E6E6" transform="matrix(1 0 0 1.0008 387.691 662.013)"/><path d="M9.4684-7.07717C8.41729-7.07717 7.62686-6.90063 7.09329-6.54758 6.56772-6.19453 6.30694-5.66895 6.30694-4.97493 6.30694-4.333 6.51958-3.82748 6.94886-3.46636 7.37413-3.1133 7.9639-2.93678 8.7142-2.93678 9.66505-2.93678 10.4634-3.27378 11.1054-3.94781 11.7553-4.62985 12.0843-5.48041 12.0843-6.49948L12.0843-7.07721ZM17.1394-8.97089 17.1394 0 12.0843 0 12.0843-2.32694C11.4103-1.37208 10.648-0.677972 9.80538-0.240746 8.95885 0.184524 7.93179 0.401176 6.72416 0.401176 5.09532 0.401176 3.77532-0.0682286 2.76026-1.01105 1.74121-1.9619 1.23567-3.19759 1.23567-4.71818 1.23567-6.55572 1.86556-7.90376 3.1294-8.76229 4.40122-9.62888 6.39519-10.0622 9.11529-10.0622L12.0842-10.0622 12.0842-10.4633C12.0842-11.2538 11.7672-11.8314 11.1373-12.1965 10.5034-12.5697 9.5245-12.7582 8.2005-12.7582 7.11724-12.7582 6.1143-12.6499 5.18346-12.4373 4.2607-12.2207 3.40611-11.8997 2.61578-11.4744L2.61578-15.3099C3.68301-15.5667 4.75815-15.7632 5.84141-15.9036 6.93268-16.04 8.02394-16.1122 9.11521-16.1122 11.9477-16.1122 13.9938-15.5506 15.2456-14.4272 16.5054-13.3119 17.1393-11.4944 17.1393-8.97093Z" fill="#E7E6E6" transform="matrix(1 0 0 1.0008 407.194 662.013)"/><path d="M7.91166-20.1882 7.91166-15.7268 13.0952-15.7268 13.0952-12.132 7.91166-12.132 7.91166-5.45603C7.91166-4.72584 8.05609-4.23638 8.34497-3.97961 8.63384-3.72284 9.20354-3.59446 10.0621-3.59446L12.6459-3.59446 12.6459 0.000308123 8.34497 0.000308123C6.35501 0.000308123 4.94278-0.40892 4.10828-1.23537 3.2818-2.06986 2.87261-3.47408 2.87261-5.45603L2.87261-12.132 0.385133-12.132 0.385133-15.7268 2.87261-15.7268 2.87261-20.1882Z" fill="#E7E6E6" transform="matrix(1 0 0 1.0008 426.599 662.013)"/><path d="M18.1186-7.91166 18.1186-6.46739 6.35554-6.46739C6.48393-5.2879 6.9092-4.40523 7.63939-3.81949 8.36556-3.22972 9.3886-2.93684 10.7046-2.93684 11.7637-2.93684 12.843-3.0893 13.9462-3.40223 15.0575-3.72319 16.197-4.19661 17.3645-4.83048L17.3645-0.962924C16.1769-0.513579 14.9893-0.176575 13.8017 0.0481082 12.6142 0.280802 11.4266 0.401165 10.239 0.401165 7.39053 0.401165 5.17584-0.320992 3.59507-1.76535 2.02241-3.20962 1.23598-5.23573 1.23598-7.84758 1.23598-10.4153 2.0103-12.4293 3.56292-13.8977 5.11155-15.3741 7.24191-16.1122 9.9501-16.1122 12.4214-16.1122 14.3994-15.362 15.8878-13.8655 17.3723-12.3771 18.1185-10.3911 18.1185-7.91167ZM12.9512-9.58066C12.9512-10.5315 12.6704-11.2978 12.1167-11.8756 11.559-12.4613 10.8329-12.7582 9.93418-12.7582 8.95926-12.7582 8.16884-12.4854 7.55907-11.9398 6.94929-11.3941 6.56811-10.6077 6.41963-9.58066Z" fill="#E7E6E6" transform="matrix(1 0 0 1.0008 440.349 662.013)"/><path d="M13.1116-13.4321 13.1116-21.8573 18.1668-21.8573 18.1668-0.000102708 13.1116-0.000102708 13.1116-2.27898C12.4256-1.34819 11.6674-0.666161 10.8328-0.240849 9.99817 0.184463 9.02738 0.401073 7.9281 0.401073 5.99031 0.401073 4.40153-0.369234 3.16185-1.90985 1.91817-3.45046 1.30028-5.4284 1.30028-7.84757 1.30028-10.2749 1.91812-12.2608 3.16185-13.8014 4.40153-15.342 5.99031-16.1123 7.9281-16.1123 9.01936-16.1123 9.98225-15.8917 10.8167-15.4544 11.6593-15.0131 12.4256-14.3391 13.1116-13.4323ZM9.80569-3.24155C10.8729-3.24155 11.6913-3.63072 12.261-4.41303 12.8267-5.2034 13.1115-6.34681 13.1115-7.84737 13.1115-9.34382 12.8267-10.4833 12.261-11.2656 11.6913-12.0559 10.8728-12.4531 9.80569-12.4531 8.73445-12.4531 7.91608-12.0559 7.35037-11.2656 6.78066-10.4833 6.49983-9.34382 6.49983-7.84737 6.49983-6.34691 6.78067-5.20347 7.35037-4.41303 7.91606-3.63069 8.73456-3.24155 9.80569-3.24155Z" fill="#E7E6E6" transform="matrix(1 0 0 1.0008 459.851 662.013)"/><path d="M10.7843-3.24165C11.8635-3.24165 12.686-3.63082 13.2556-4.41314 13.8214-5.2035 14.1062-6.34691 14.1062-7.84747 14.1062-9.34392 13.8214-10.4834 13.2556-11.2657 12.6859-12.056 11.8634-12.4532 10.7843-12.4532 9.70103-12.4532 8.87455-12.056 8.29682-11.2657 7.72711-10.4713 7.44628-9.3319 7.44628-7.84747 7.44628-6.35903 7.72712-5.2196 8.29682-4.42926 8.87455-3.63488 9.70103-3.24176 10.7843-3.24176ZM7.4463-13.4322C8.14037-14.3389 8.90669-15.013 9.74119-15.4543 10.5837-15.8916 11.5546-16.1122 12.6459-16.1122 14.5917-16.1122 16.1844-15.3419 17.4281-13.8013 18.6678-12.2607 19.2897-10.2748 19.2897-7.84749 19.2897-5.42822 18.6678-3.45038 17.4281-1.90976 16.1844-0.369151 14.5917 0.401155 12.6459 0.401155 11.5546 0.401155 10.5837 0.184504 9.74119-0.240767 8.90669-0.678075 8.14039-1.35607 7.4463-2.2789L7.4463-2.05415e-05 2.42328-2.05415e-05 2.42328-21.8572 7.4463-21.8572Z" fill="#E7E6E6" transform="matrix(1 0 0 1.0008 490.45 662.013)"/><path d="M0.353057-15.7266 5.37607-15.7266 9.61276-5.05424 13.2076-15.7266 18.2306-15.7266 11.6188 1.49337C10.9527 3.23457 10.1785 4.45422 9.2918 5.15232 8.40113 5.85844 7.23765 6.21144 5.79337 6.21144L2.87258 6.21144 2.87258 2.90549 4.44523 2.90549C5.29979 2.90549 5.92165 2.76507 6.30681 2.48824 6.69998 2.21944 7.0049 1.738 7.22154 1.04397L7.36597 0.610668Z" fill="#E7E6E6" transform="matrix(1 0 0 1.0008 511.036 662.013)"/><path d="M9.4684-7.07717C8.41729-7.07717 7.62686-6.90063 7.09329-6.54758 6.56772-6.19453 6.30694-5.66895 6.30694-4.97493 6.30694-4.333 6.51958-3.82748 6.94886-3.46636 7.37413-3.1133 7.9639-2.93678 8.7142-2.93678 9.66505-2.93678 10.4634-3.27378 11.1054-3.94781 11.7553-4.62985 12.0843-5.48041 12.0843-6.49948L12.0843-7.07721ZM17.1394-8.97089 17.1394 0 12.0843 0 12.0843-2.32694C11.4103-1.37208 10.648-0.677972 9.80538-0.240746 8.95885 0.184524 7.93179 0.401176 6.72416 0.401176 5.09532 0.401176 3.77532-0.0682286 2.76026-1.01105 1.74121-1.9619 1.23567-3.19759 1.23567-4.71818 1.23567-6.55572 1.86556-7.90376 3.1294-8.76229 4.40122-9.62888 6.39519-10.0622 9.11529-10.0622L12.0842-10.0622 12.0842-10.4633C12.0842-11.2538 11.7672-11.8314 11.1373-12.1965 10.5034-12.5697 9.5245-12.7582 8.2005-12.7582 7.11724-12.7582 6.1143-12.6499 5.18346-12.4373 4.2607-12.2207 3.40611-11.8997 2.61578-11.4744L2.61578-15.3099C3.68301-15.5667 4.75815-15.7632 5.84141-15.9036 6.93268-16.04 8.02394-16.1122 9.11521-16.1122 11.9477-16.1122 13.9938-15.5506 15.2456-14.4272 16.5054-13.3119 17.1393-11.4944 17.1393-8.97093Z" fill="#E7E6E6" transform="matrix(1 0 0 1.0008 539.794 662.013)"/><path d="M14.1059-11.4426C13.6565-11.6432 13.2112-11.7957 12.7738-11.892 12.3445-11.9963 11.9113-12.0524 11.474-12.0524 10.1781-12.0524 9.18308-11.6352 8.48909-10.8007 7.79099-9.9742 7.44599-8.79469 7.44599-7.25408L7.44599-0.000359476 2.42297-0.000359476 2.42297-15.727 7.44599-15.727 7.44599-13.1433C8.08791-14.1704 8.82617-14.9165 9.66057-15.39 10.5031-15.8714 11.5101-16.1121 12.6776-16.1121 12.8461-16.1121 13.0307-16.1001 13.2233-16.08 13.4239-16.068 13.7127-16.0399 14.0898-15.9998Z" fill="#E7E6E6" transform="matrix(1 0 0 1.0008 559.197 662.013)"/><path d="M2.42328-15.7266 7.4463-15.7266 7.4463-0.288608C7.4463 1.81772 6.93677 3.42653 5.92171 4.54183 4.91469 5.65312 3.45036 6.21083 1.52459 6.21083L-0.962883 6.21083-0.962883 2.90488-0.0802351 2.90488C0.870611 2.90488 1.52457 2.68823 1.87758 2.26295 2.23865 1.83367 2.42321 0.983116 2.42321-0.288711ZM2.42328-21.857 7.4463-21.857 7.4463-17.7487 2.42328-17.7487Z" fill="#E7E6E6" transform="matrix(1 0 0 1.0008 573.383 662.013)"/><path d="M2.24673-6.13041 2.24673-15.7272 7.30189-15.7272 7.30189-14.1545C7.30189-13.296 7.29387-12.2288 7.28584-10.9449 7.27381-9.66108 7.26979-8.80255 7.26979-8.37724 7.26979-7.1014 7.30189-6.18669 7.36608-5.63299 7.43829-5.07532 7.55064-4.67413 7.70309-4.42937 7.91572-4.09637 8.18854-3.8396 8.52154-3.65906 8.85052-3.48654 9.23167-3.40229 9.66098-3.40229 10.7081-3.40229 11.5306-3.80349 12.1323-4.60592 12.7301-5.40832 13.031-6.52367 13.031-7.95994L13.031-15.7272 18.054-15.7272 18.054-0.000616245 13.031-0.000616245 13.031-2.27949C12.2687-1.35673 11.4664-0.678691 10.6238-0.241363 9.77722 0.183908 8.8424 0.400559 7.81532 0.400559 6.00593 0.400559 4.62574-0.153096 3.67498-1.26844 2.72012-2.37973 2.24673-4.00066 2.24673-6.13102Z" fill="#E7E6E6" transform="matrix(1 0 0 1.0008 583.236 662.013)"/><path d="M9.4684-7.07717C8.41729-7.07717 7.62686-6.90063 7.09329-6.54758 6.56772-6.19453 6.30694-5.66895 6.30694-4.97493 6.30694-4.333 6.51958-3.82748 6.94886-3.46636 7.37413-3.1133 7.9639-2.93678 8.7142-2.93678 9.66505-2.93678 10.4634-3.27378 11.1054-3.94781 11.7553-4.62985 12.0843-5.48041 12.0843-6.49948L12.0843-7.07721ZM17.1394-8.97089 17.1394 0 12.0843 0 12.0843-2.32694C11.4103-1.37208 10.648-0.677972 9.80538-0.240746 8.95885 0.184524 7.93179 0.401176 6.72416 0.401176 5.09532 0.401176 3.77532-0.0682286 2.76026-1.01105 1.74121-1.9619 1.23567-3.19759 1.23567-4.71818 1.23567-6.55572 1.86556-7.90376 3.1294-8.76229 4.40122-9.62888 6.39519-10.0622 9.11529-10.0622L12.0842-10.0622 12.0842-10.4633C12.0842-11.2538 11.7672-11.8314 11.1373-12.1965 10.5034-12.5697 9.5245-12.7582 8.2005-12.7582 7.11724-12.7582 6.1143-12.6499 5.18346-12.4373 4.2607-12.2207 3.40611-11.8997 2.61578-11.4744L2.61578-15.3099C3.68301-15.5667 4.75815-15.7632 5.84141-15.9036 6.93268-16.04 8.02394-16.1122 9.11521-16.1122 11.9477-16.1122 13.9938-15.5506 15.2456-14.4272 16.5054-13.3119 17.1393-11.4944 17.1393-8.97093Z" fill="#E7E6E6" transform="matrix(1 0 0 1.0008 603.714 662.013)"/><path d="M1.63695-15.7266 15.3577-15.7266 15.3577-12.212 7.07686-3.59425 15.3577-3.59425 15.3577 0.000513538 1.29904 0.000513538 1.29904-3.51404 9.57984-12.1318 1.63603-12.1318Z" fill="#E7E6E6" transform="matrix(1 0 0 1.0008 623.116 662.013)"/><path d="M2.42328-21.8572 7.4463-21.8572 7.4463-9.94928 13.2236-15.7266 19.0651-15.7266 11.3941-8.505 19.6749 0.00041083 13.5766 0.00041083 7.44619-6.56322 7.44619 0.00041083 2.42318 0.00041083Z" fill="#E7E6E6" transform="matrix(1 0 0 1.0008 639.854 662.013)"/><path d="M9.4684-7.07717C8.41729-7.07717 7.62686-6.90063 7.09329-6.54758 6.56772-6.19453 6.30694-5.66895 6.30694-4.97493 6.30694-4.333 6.51958-3.82748 6.94886-3.46636 7.37413-3.1133 7.9639-2.93678 8.7142-2.93678 9.66505-2.93678 10.4634-3.27378 11.1054-3.94781 11.7553-4.62985 12.0843-5.48041 12.0843-6.49948L12.0843-7.07721ZM17.1394-8.97089 17.1394 0 12.0843 0 12.0843-2.32694C11.4103-1.37208 10.648-0.677972 9.80538-0.240746 8.95885 0.184524 7.93179 0.401176 6.72416 0.401176 5.09532 0.401176 3.77532-0.0682286 2.76026-1.01105 1.74121-1.9619 1.23567-3.19759 1.23567-4.71818 1.23567-6.55572 1.86556-7.90376 3.1294-8.76229 4.40122-9.62888 6.39519-10.0622 9.11529-10.0622L12.0842-10.0622 12.0842-10.4633C12.0842-11.2538 11.7672-11.8314 11.1373-12.1965 10.5034-12.5697 9.5245-12.7582 8.2005-12.7582 7.11724-12.7582 6.1143-12.6499 5.18346-12.4373 4.2607-12.2207 3.40611-11.8997 2.61578-11.4744L2.61578-15.3099C3.68301-15.5667 4.75815-15.7632 5.84141-15.9036 6.93268-16.04 8.02394-16.1122 9.11521-16.1122 11.9477-16.1122 13.9938-15.5506 15.2456-14.4272 16.5054-13.3119 17.1393-11.4944 17.1393-8.97093Z" fill="#E7E6E6" transform="matrix(1 0 0 1.0008 658.983 662.013)"/><path d="M12.7583-21.8572 12.7583-18.5512 9.98204-18.5512C9.27593-18.5512 8.77841-18.4229 8.4896-18.1661 8.20876-17.9093 8.07235-17.46 8.07235-16.8181L8.07235-15.7268 12.3733-15.7268 12.3733-12.132 8.07235-12.132 8.07235-0.000205415 3.04934-0.000205415 3.04934-12.132 0.545839-12.132 0.545839-15.7268 3.04934-15.7268 3.04934-16.8181C3.04934-18.5272 3.52276-19.7949 4.47759-20.6214 5.42843-21.4439 6.90888-21.8571 8.92287-21.8571Z" fill="#E7E6E6" transform="matrix(1 0 0 1.0008 352.401 690.795)"/><path d="M14.1059-11.4426C13.6565-11.6432 13.2112-11.7957 12.7738-11.892 12.3445-11.9963 11.9113-12.0524 11.474-12.0524 10.1781-12.0524 9.18308-11.6352 8.48909-10.8007 7.79099-9.9742 7.44599-8.79469 7.44599-7.25408L7.44599-0.000359476 2.42297-0.000359476 2.42297-15.727 7.44599-15.727 7.44599-13.1433C8.08791-14.1704 8.82617-14.9165 9.66057-15.39 10.5031-15.8714 11.5101-16.1121 12.6776-16.1121 12.8461-16.1121 13.0307-16.1001 13.2233-16.08 13.4239-16.068 13.7127-16.0399 14.0898-15.9998Z" fill="#E7E6E6" transform="matrix(1 0 0 1.0008 364.915 690.795)"/><path d="M9.90162-12.518C8.78632-12.518 7.9357-12.1168 7.34996-11.3144 6.76019-10.5119 6.46731-9.35655 6.46731-7.84798 6.46731-6.33942 6.76019-5.18396 7.34996-4.38161 7.93571-3.58722 8.78622-3.1941 9.90162-3.1941 10.9929-3.1941 11.8274-3.58728 12.4051-4.38161 12.9909-5.18401 13.2878-6.33942 13.2878-7.84798 13.2878-9.35655 12.9909-10.512 12.4051-11.3144 11.8274-12.1167 10.9929-12.518 9.90162-12.518ZM9.90162-16.1128C12.6057-16.1128 14.72-15.3786 16.2406-13.9142 17.7572-12.4578 18.5195-10.4358 18.5195-7.84809 18.5195-5.26838 17.7572-3.24628 16.2406-1.78198 14.72-0.325583 12.6057 0.400559 9.90162 0.400559 7.18152 0.400559 5.05917-0.325614 3.53057-1.78198 1.99797-3.24638 1.23567-5.26838 1.23567-7.84809 1.23567-10.4358 1.99796-12.4579 3.53057-13.9142 5.05917-15.3786 7.18152-16.1128 9.90162-16.1128Z" fill="#E7E6E6" transform="matrix(1 0 0 1.0008 379.097 690.795)"/><path d="M16.995-13.1116C17.6249-14.0825 18.3792-14.8288 19.2578-15.3423 20.1324-15.8559 21.0953-16.1127 22.1464-16.1127 23.9518-16.1127 25.328-15.5509 26.2707-14.4276 27.2216-13.3123 27.699-11.6995 27.699-9.58107L27.699-0.00041083 22.6438-0.00041083 22.6438-8.20099 22.6438-8.5701C22.6518-8.70651 22.6598-8.89908 22.6598-9.14783 22.6598-10.2591 22.4914-11.0616 22.1623-11.5551 21.8414-12.0566 21.3158-12.3094 20.5897-12.3094 19.6349-12.3094 18.8966-11.9121 18.3751-11.1219 17.8495-10.3395 17.5808-9.20409 17.5727-7.71966L17.5727-0.000575162 12.5176-0.000575162 12.5176-8.20116C12.5176-9.94236 12.3652-11.0618 12.0682-11.5552 11.7673-12.0566 11.2337-12.3094 10.4634-12.3094 9.50055-12.3094 8.75427-11.9122 8.23272-11.1219 7.70714-10.3396 7.44637-9.21219 7.44637-7.73577L7.44637-0.000657328 2.39122-0.000657328 2.39122-15.7272 7.44637-15.7272 7.44637-13.4323C8.06422-14.319 8.77038-14.9889 9.56472-15.4383 10.3671-15.8876 11.2498-16.1123 12.2126-16.1123 13.3039-16.1123 14.2668-15.8476 15.1013-15.326 15.9358-14.8004 16.5657-14.0622 16.995-13.1114Z" fill="#E7E6E6" transform="matrix(1 0 0 1.0008 398.853 690.795)"/><path d="M7.91166-20.1882 7.91166-15.7268 13.0952-15.7268 13.0952-12.132 7.91166-12.132 7.91166-5.45603C7.91166-4.72584 8.05609-4.23638 8.34497-3.97961 8.63384-3.72284 9.20354-3.59446 10.0621-3.59446L12.6459-3.59446 12.6459 0.000308123 8.34497 0.000308123C6.35501 0.000308123 4.94278-0.40892 4.10828-1.23537 3.2818-2.06986 2.87261-3.47408 2.87261-5.45603L2.87261-12.132 0.385133-12.132 0.385133-15.7268 2.87261-15.7268 2.87261-20.1882Z" fill="#E7E6E6" transform="matrix(1 0 0 1.0008 438.832 690.795)"/><path d="M18.2306-9.58066 18.2306 0 13.1754 0 13.1754-7.30189C13.1754-8.68207 13.1434-9.62883 13.0792-10.1424 13.015-10.6559 12.9066-11.033 12.7582-11.2818 12.5656-11.6028 12.2968-11.8515 11.9558-12.0361 11.6228-12.2167 11.2416-12.3089 10.8163-12.3089 9.76523-12.3089 8.94274-11.8997 8.34499-11.0892 7.74318-10.2868 7.4463-9.16747 7.4463-7.73521L7.4463-0.000102708 2.42328-0.000102708 2.42328-21.8573 7.4463-21.8573 7.4463-13.4321C8.20457-14.3388 9.00694-15.0129 9.85355-15.4542 10.7081-15.8915 11.6509-16.1121 12.678-16.1121 14.4954-16.1121 15.8756-15.5504 16.8184-14.4271 17.7572-13.3118 18.2306-11.699 18.2306-9.58058Z" fill="#E7E6E6" transform="matrix(1 0 0 1.0008 452.577 690.795)"/><path d="M18.1186-7.91166 18.1186-6.46739 6.35554-6.46739C6.48393-5.2879 6.9092-4.40523 7.63939-3.81949 8.36556-3.22972 9.3886-2.93684 10.7046-2.93684 11.7637-2.93684 12.843-3.0893 13.9462-3.40223 15.0575-3.72319 16.197-4.19661 17.3645-4.83048L17.3645-0.962924C16.1769-0.513579 14.9893-0.176575 13.8017 0.0481082 12.6142 0.280802 11.4266 0.401165 10.239 0.401165 7.39053 0.401165 5.17584-0.320992 3.59507-1.76535 2.02241-3.20962 1.23598-5.23573 1.23598-7.84758 1.23598-10.4153 2.0103-12.4293 3.56292-13.8977 5.11155-15.3741 7.24191-16.1122 9.9501-16.1122 12.4214-16.1122 14.3994-15.362 15.8878-13.8655 17.3723-12.3771 18.1185-10.3911 18.1185-7.91167ZM12.9512-9.58066C12.9512-10.5315 12.6704-11.2978 12.1167-11.8756 11.559-12.4613 10.8329-12.7582 9.93418-12.7582 8.95926-12.7582 8.16884-12.4854 7.55907-11.9398 6.94929-11.3941 6.56811-10.6077 6.41963-9.58066Z" fill="#E7E6E6" transform="matrix(1 0 0 1.0008 473.051 690.795)"/><path d="M2.6479-20.9585 8.68197-20.9585 16.3048-6.57944 16.3048-20.9585 21.4242-20.9585 21.4242 0 15.3901 0 7.76726-14.3791 7.76726 0 2.6479 0Z" fill="#E7E6E6" transform="matrix(1 0 0 1.0008 502.567 690.795)"/><path d="M9.90162-12.518C8.78632-12.518 7.9357-12.1168 7.34996-11.3144 6.76019-10.5119 6.46731-9.35655 6.46731-7.84798 6.46731-6.33942 6.76019-5.18396 7.34996-4.38161 7.93571-3.58722 8.78622-3.1941 9.90162-3.1941 10.9929-3.1941 11.8274-3.58728 12.4051-4.38161 12.9909-5.18401 13.2878-6.33942 13.2878-7.84798 13.2878-9.35655 12.9909-10.512 12.4051-11.3144 11.8274-12.1167 10.9929-12.518 9.90162-12.518ZM9.90162-16.1128C12.6057-16.1128 14.72-15.3786 16.2406-13.9142 17.7572-12.4578 18.5195-10.4358 18.5195-7.84809 18.5195-5.26838 17.7572-3.24628 16.2406-1.78198 14.72-0.325583 12.6057 0.400559 9.90162 0.400559 7.18152 0.400559 5.05917-0.325614 3.53057-1.78198 1.99797-3.24638 1.23567-5.26838 1.23567-7.84809 1.23567-10.4358 1.99796-12.4579 3.53057-13.9142 5.05917-15.3786 7.18152-16.1128 9.90162-16.1128Z" fill="#E7E6E6" transform="matrix(1 0 0 1.0008 526.635 690.795)"/><path d="M2.24673-6.13041 2.24673-15.7272 7.30189-15.7272 7.30189-14.1545C7.30189-13.296 7.29387-12.2288 7.28584-10.9449 7.27381-9.66108 7.26979-8.80255 7.26979-8.37724 7.26979-7.1014 7.30189-6.18669 7.36608-5.63299 7.43829-5.07532 7.55064-4.67413 7.70309-4.42937 7.91572-4.09637 8.18854-3.8396 8.52154-3.65906 8.85052-3.48654 9.23167-3.40229 9.66098-3.40229 10.7081-3.40229 11.5306-3.80349 12.1323-4.60592 12.7301-5.40832 13.031-6.52367 13.031-7.95994L13.031-15.7272 18.054-15.7272 18.054-0.000616245 13.031-0.000616245 13.031-2.27949C12.2687-1.35673 11.4664-0.678691 10.6238-0.241363 9.77722 0.183908 8.8424 0.400559 7.81532 0.400559 6.00593 0.400559 4.62574-0.153096 3.67498-1.26844 2.72012-2.37973 2.24673-4.00066 2.24673-6.13102Z" fill="#E7E6E6" transform="matrix(1 0 0 1.0008 546.394 690.795)"/><path d="M18.2306-9.58066 18.2306 0 13.1754 0 13.1754-7.33393C13.1754-8.68998 13.1434-9.62883 13.0792-10.1424 13.015-10.6559 12.9066-11.033 12.7582-11.2818 12.5656-11.6028 12.2968-11.8515 11.9558-12.0361 11.6228-12.2167 11.2416-12.3089 10.8163-12.3089 9.76523-12.3089 8.94274-11.8997 8.34499-11.0892 7.74318-10.2868 7.4463-9.16747 7.4463-7.73521L7.4463-0.000102708 2.42328-0.000102708 2.42328-15.7267 7.4463-15.7267 7.4463-13.4318C8.20457-14.3385 9.00694-15.0126 9.85355-15.4539 10.7081-15.8912 11.6509-16.1118 12.678-16.1118 14.4954-16.1118 15.8756-15.5501 16.8184-14.4268 17.7572-13.3115 18.2306-11.6987 18.2306-9.58027Z" fill="#E7E6E6" transform="matrix(1 0 0 1.0008 566.867 690.795)"/><path d="M2.6479-20.9585 11.6188-20.9585C14.2828-20.9585 16.3248-20.3647 17.7492-19.1771 19.1815-17.9976 19.8997-16.3125 19.8997-14.122 19.8997-11.9274 19.1816-10.2384 17.7492-9.05079 16.325-7.86329 14.2828-7.26943 11.6188-7.26943L8.04005-7.26943 8.04005 0.000308123 2.6479 0.000308123ZM8.04005-17.0428 8.04005-11.1853 11.0411-11.1853C12.0882-11.1853 12.8946-11.442 13.4643-11.9556 14.0421-12.4691 14.3309-13.1912 14.3309-14.1221 14.3309-15.0609 14.0421-15.7831 13.4643-16.2886 12.8946-16.7901 12.0883-17.0429 11.0411-17.0429Z" fill="#E7E6E6" transform="matrix(1 0 0 1.0008 597.351 690.795)"/><path d="M14.1059-11.4426C13.6565-11.6432 13.2112-11.7957 12.7738-11.892 12.3445-11.9963 11.9113-12.0524 11.474-12.0524 10.1781-12.0524 9.18308-11.6352 8.48909-10.8007 7.79099-9.9742 7.44599-8.79469 7.44599-7.25408L7.44599-0.000359476 2.42297-0.000359476 2.42297-15.727 7.44599-15.727 7.44599-13.1433C8.08791-14.1704 8.82617-14.9165 9.66057-15.39 10.5031-15.8714 11.5101-16.1121 12.6776-16.1121 12.8461-16.1121 13.0307-16.1001 13.2233-16.08 13.4239-16.068 13.7127-16.0399 14.0898-15.9998Z" fill="#E7E6E6" transform="matrix(1 0 0 1.0008 618.43 690.795)"/><path d="M9.90162-12.518C8.78632-12.518 7.9357-12.1168 7.34996-11.3144 6.76019-10.5119 6.46731-9.35655 6.46731-7.84798 6.46731-6.33942 6.76019-5.18396 7.34996-4.38161 7.93571-3.58722 8.78622-3.1941 9.90162-3.1941 10.9929-3.1941 11.8274-3.58728 12.4051-4.38161 12.9909-5.18401 13.2878-6.33942 13.2878-7.84798 13.2878-9.35655 12.9909-10.512 12.4051-11.3144 11.8274-12.1167 10.9929-12.518 9.90162-12.518ZM9.90162-16.1128C12.6057-16.1128 14.72-15.3786 16.2406-13.9142 17.7572-12.4578 18.5195-10.4358 18.5195-7.84809 18.5195-5.26838 17.7572-3.24628 16.2406-1.78198 14.72-0.325583 12.6057 0.400559 9.90162 0.400559 7.18152 0.400559 5.05917-0.325614 3.53057-1.78198 1.99797-3.24638 1.23567-5.26838 1.23567-7.84809 1.23567-10.4358 1.99796-12.4579 3.53057-13.9142 5.05917-15.3786 7.18152-16.1128 9.90162-16.1128Z" fill="#E7E6E6" transform="matrix(1 0 0 1.0008 632.608 690.795)"/><path d="M2.42328-15.7266 7.4463-15.7266 7.4463-0.288608C7.4463 1.81772 6.93677 3.42653 5.92171 4.54183 4.91469 5.65312 3.45036 6.21083 1.52459 6.21083L-0.962883 6.21083-0.962883 2.90488-0.0802351 2.90488C0.870611 2.90488 1.52457 2.68823 1.87758 2.26295 2.23865 1.83367 2.42321 0.983116 2.42321-0.288711ZM2.42328-21.857 7.4463-21.857 7.4463-17.7487 2.42328-17.7487Z" fill="#E7E6E6" transform="matrix(1 0 0 1.0008 652.368 690.795)"/><path d="M18.1186-7.91166 18.1186-6.46739 6.35554-6.46739C6.48393-5.2879 6.9092-4.40523 7.63939-3.81949 8.36556-3.22972 9.3886-2.93684 10.7046-2.93684 11.7637-2.93684 12.843-3.0893 13.9462-3.40223 15.0575-3.72319 16.197-4.19661 17.3645-4.83048L17.3645-0.962924C16.1769-0.513579 14.9893-0.176575 13.8017 0.0481082 12.6142 0.280802 11.4266 0.401165 10.239 0.401165 7.39053 0.401165 5.17584-0.320992 3.59507-1.76535 2.02241-3.20962 1.23598-5.23573 1.23598-7.84758 1.23598-10.4153 2.0103-12.4293 3.56292-13.8977 5.11155-15.3741 7.24191-16.1122 9.9501-16.1122 12.4214-16.1122 14.3994-15.362 15.8878-13.8655 17.3723-12.3771 18.1185-10.3911 18.1185-7.91167ZM12.9512-9.58066C12.9512-10.5315 12.6704-11.2978 12.1167-11.8756 11.559-12.4613 10.8329-12.7582 9.93418-12.7582 8.95926-12.7582 8.16884-12.4854 7.55907-11.9398 6.94929-11.3941 6.56811-10.6077 6.41963-9.58066Z" fill="#E7E6E6" transform="matrix(1 0 0 1.0008 662.225 690.795)"/><path d="M15.1175-15.2295 15.1175-11.1372C14.4435-11.6066 13.7575-11.9557 13.0634-12.1803 12.3773-12.4049 11.6672-12.5173 10.929-12.5173 9.52479-12.5173 8.42951-12.1041 7.63918-11.2816 6.85684-10.4671 6.4677-9.32381 6.4677-7.84729 6.4677-6.37888 6.85687-5.23543 7.63918-4.41295 8.42955-3.59851 9.52479-3.1933 10.929-3.1933 11.7073-3.1933 12.4536-3.30564 13.1597-3.5303 13.8658-3.763 14.5158-4.11205 15.1175-4.5734L15.1175-0.465101C14.3352-0.176236 13.5367 0.0363996 12.7264 0.176821 11.9239 0.325264 11.1096 0.401494 10.2871 0.401494 7.45061 0.401494 5.23192-0.324679 3.62712-1.78104 2.03032-3.23343 1.23598-5.25543 1.23598-7.84715 1.23598-10.4469 2.03036-12.473 3.62712-13.9294 5.23192-15.3818 7.45061-16.1119 10.2871-16.1119 11.1096-16.1119 11.924-16.0357 12.7264-15.8872 13.5287-15.7468 14.3232-15.5262 15.1175-15.2293Z" fill="#E7E6E6" transform="matrix(1 0 0 1.0008 681.731 690.795)"/><path d="M7.91166-20.1882 7.91166-15.7268 13.0952-15.7268 13.0952-12.132 7.91166-12.132 7.91166-5.45603C7.91166-4.72584 8.05609-4.23638 8.34497-3.97961 8.63384-3.72284 9.20354-3.59446 10.0621-3.59446L12.6459-3.59446 12.6459 0.000308123 8.34497 0.000308123C6.35501 0.000308123 4.94278-0.40892 4.10828-1.23537 3.2818-2.06986 2.87261-3.47408 2.87261-5.45603L2.87261-12.132 0.385133-12.132 0.385133-15.7268 2.87261-15.7268 2.87261-20.1882Z" fill="#E7E6E6" transform="matrix(1 0 0 1.0008 698.774 690.795)"/></g></svg>